<?xml version="1.0" standalone="no"?>
<!DOCTYPE svg PUBLIC "-//W3C//DTD SVG 20010904//EN"
 "http://www.w3.org/TR/2001/REC-SVG-20010904/DTD/svg10.dtd">
<svg version="1.0" xmlns="http://www.w3.org/2000/svg"
 width="300.000000pt" height="300.000000pt" viewBox="0 0 300.000000 300.000000"
 preserveAspectRatio="xMidYMid meet">
<metadata>
Created by potrace 1.14, written by Peter Selinger 2001-2017
</metadata>
<g transform="translate(0.000000,300.000000) scale(0.100000,-0.100000)"
fill="#000000" stroke="none">
<path d="M1412 2948 c-96 -10 -232 -57 -323 -110 -97 -57 -216 -177 -274 -275
-46 -79 -86 -187 -102 -279 -13 -66 -8 -238 7 -294 7 -25 14 -56 17 -70 2 -14
11 -38 19 -54 8 -16 14 -34 14 -41 0 -6 23 -49 50 -95 28 -46 50 -85 50 -86 0
-2 -65 -4 -145 -3 -152 0 -186 -7 -234 -52 -31 -29 -45 -60 -94 -219 -216
-693 -269 -863 -272 -880 -1 -3 -18 -59 -39 -125 -41 -128 -46 -177 -22 -223
15 -29 69 -81 87 -83 18 -3 24 -4 34 -9 6 -3 602 -5 1325 -4 1243 1 1317 2
1349 19 19 9 43 27 52 39 22 25 46 93 43 121 -1 17 -145 487 -239 785 -15 47
-28 90 -29 95 -1 6 -9 33 -18 60 -9 28 -37 118 -63 200 -48 158 -66 199 -100
228 -46 41 -83 48 -231 49 -79 0 -144 2 -144 5 0 3 8 17 19 31 95 136 145 304
145 482 0 102 -8 154 -39 246 -120 359 -466 582 -843 542z m223 -101 c103 -24
190 -62 270 -117 52 -36 153 -137 160 -161 4 -11 10 -19 14 -19 13 0 88 -160
100 -215 21 -90 22 -99 22 -180 1 -146 -38 -277 -117 -402 -26 -41 -363 -469
-462 -588 -10 -11 -39 -48 -66 -82 -27 -35 -52 -63 -55 -63 -8 0 9 -21 -291
355 -141 176 -271 342 -290 369 -31 46 -105 206 -95 206 3 0 1 10 -4 23 -21
54 -28 193 -16 287 16 117 92 278 172 366 108 116 274 206 423 227 32 5 209 0
235 -6z m-629 -1367 c29 -36 49 -67 44 -70 -4 -3 -91 -5 -192 -4 -100 0 -188
-1 -194 -3 -5 -2 -10 -23 -9 -46 l1 -42 244 -2 c228 -3 244 -4 257 -22 7 -11
20 -27 28 -35 22 -21 19 -24 -27 -36 -24 -6 -75 -27 -113 -45 -216 -104 -262
-269 -112 -405 57 -52 196 -112 312 -135 11 -2 34 -7 50 -11 65 -14 329 -13
415 2 216 39 375 125 425 231 20 41 23 71 12 130 -14 83 -145 184 -296 229
-55 16 -56 20 -12 72 20 22 23 23 263 25 l243 2 1 35 c0 19 -1 40 -3 46 -3 7
-63 11 -189 10 -102 -1 -191 1 -199 4 -10 4 2 24 40 71 l54 66 184 -1 c167 -1
187 -3 206 -20 21 -19 40 -76 165 -476 24 -80 67 -217 94 -305 28 -88 67 -214
87 -280 20 -66 46 -148 57 -183 11 -35 17 -74 14 -87 -15 -59 66 -55 -1364
-53 -1171 3 -1313 5 -1327 19 -28 27 -26 62 11 179 51 167 108 350 144 465 18
55 72 231 121 390 49 160 98 301 108 315 25 34 44 37 235 36 l169 -1 53 -65z
m309 -387 c25 -32 61 -76 78 -97 18 -22 41 -52 52 -68 21 -29 56 -45 75 -33 5
3 55 62 111 131 111 138 95 130 199 97 60 -19 85 -31 146 -70 161 -104 78
-241 -187 -312 -289 -78 -660 -26 -806 112 -104 98 -11 213 227 282 25 7 48
14 52 14 4 1 28 -25 53 -56z"/>
<path d="M1435 2760 c-11 -4 -23 -6 -28 -3 -12 7 -118 -27 -182 -59 -323 -162
-433 -578 -232 -878 55 -82 153 -167 241 -210 173 -83 360 -83 531 0 250 121
387 398 331 669 -49 234 -230 419 -464 472 -59 13 -171 18 -197 9z m228 -117
c38 -14 83 -33 99 -43 l30 -18 -124 -3 c-108 -4 -127 -7 -154 -26 -35 -25 -63
-84 -59 -123 1 -14 3 -30 4 -37 0 -7 15 -28 31 -47 29 -32 69 -52 98 -47 21 4
52 -29 52 -54 0 -31 -21 -38 -126 -40 -108 -2 -144 -16 -177 -67 -41 -63 -25
-146 35 -189 29 -21 47 -24 141 -28 118 -4 119 -4 132 -74 9 -47 65 -107 99
-107 44 0 37 -18 -16 -44 -80 -39 -154 -54 -243 -51 -91 4 -98 5 -178 35 -78
29 -155 88 -219 168 -20 25 -71 123 -66 127 2 1 17 10 35 19 61 31 112 108
113 169 0 20 7 30 26 38 15 5 29 7 32 4 10 -10 78 38 102 72 36 53 35 136 -2
185 -32 41 -87 70 -135 70 -19 0 -32 5 -31 10 7 19 131 88 193 107 91 29 220
26 308 -6z m272 -211 c106 -169 104 -399 -7 -559 l-29 -43 -68 0 c-76 0 -96
13 -99 64 -2 33 -42 90 -75 108 -12 6 -65 12 -119 13 -104 1 -128 11 -128 51
0 34 28 44 125 44 128 0 175 28 195 116 17 75 -37 149 -117 161 -48 7 -63 19
-63 49 0 43 25 49 195 49 l157 -1 33 -52z m-703 -6 c23 -10 40 -63 28 -85 -13
-26 -35 -42 -62 -45 -74 -8 -111 -44 -121 -117 -2 -19 -10 -45 -16 -57 -12
-23 -58 -58 -66 -50 -10 9 -12 111 -3 164 8 52 49 166 69 190 10 12 144 12
171 0z"/>
<path d="M707 505 c-2 -5 -4 -26 -3 -45 l1 -35 796 -1 795 -2 0 47 -1 46 -792
0 c-534 0 -794 -3 -796 -10z"/>
<path d="M424 316 c-3 -8 -4 -29 -2 -48 l3 -33 1065 -1 c586 0 1070 1 1077 4
7 2 12 22 11 48 l-1 43 -1074 0 c-900 0 -1075 -2 -1079 -13z"/>
</g>
</svg>
